<?xml version="1.0" encoding="UTF-8" standalone="no"?>
<!DOCTYPE svg PUBLIC "-//W3C//DTD SVG 1.1//EN"
 "http://www.w3.org/Graphics/SVG/1.1/DTD/svg11.dtd">
<!-- Generated by graphviz version 2.44.0 (0)
 -->
<!-- Title: dag Pages: 1 -->
<svg width="648pt" height="1255pt"
 viewBox="0.00 0.00 648.00 1255.00" xmlns="http://www.w3.org/2000/svg" xmlns:xlink="http://www.w3.org/1999/xlink">
<g id="graph0" class="graph" transform="scale(1 1) rotate(0) translate(4 1251)">
<title>dag</title>
<polygon fill="white" stroke="transparent" points="-4,4 -4,-1251 644,-1251 644,4 -4,4"/>
<!-- p0 -->
<g id="node1" class="node">
<title>p0</title>
<ellipse fill="black" stroke="black" cx="213.5" cy="-1228.4" rx="3.6" ry="3.6"/>
<text text-anchor="middle" x="147.9" y="-1235.8" font-family="Times-Roman" font-size="14.00">Channel.fromPath</text>
</g>
<!-- p1 -->
<g id="node2" class="node">
<title>p1</title>
<ellipse fill="none" stroke="black" cx="213.5" cy="-1184.3" rx="3.5" ry="3.5"/>
<text text-anchor="middle" x="182.5" y="-1191.6" font-family="Times-Roman" font-size="14.00">splitCsv</text>
</g>
<!-- p0&#45;&gt;p1 -->
<g id="edge1" class="edge">
<title>p0&#45;&gt;p1</title>
<path fill="none" stroke="black" d="M213.5,-1224.64C213.5,-1219.35 213.5,-1207.48 213.5,-1198.15"/>
<polygon fill="black" stroke="black" points="217,-1198.13 213.5,-1188.13 210,-1198.13 217,-1198.13"/>
</g>
<!-- p2 -->
<g id="node3" class="node">
<title>p2</title>
<ellipse fill="none" stroke="black" cx="214.5" cy="-1089.3" rx="3.5" ry="3.5"/>
<text text-anchor="middle" x="195.5" y="-1096.6" font-family="Times-Roman" font-size="14.00">map</text>
</g>
<!-- p1&#45;&gt;p2 -->
<g id="edge2" class="edge">
<title>p1&#45;&gt;p2</title>
<path fill="none" stroke="black" d="M213.53,-1180.62C213.65,-1169.32 214.13,-1125.17 214.36,-1103.06"/>
<polygon fill="black" stroke="black" points="217.87,-1102.85 214.47,-1092.82 210.87,-1102.78 217.87,-1102.85"/>
<text text-anchor="middle" x="230" y="-1151.6" font-family="Times-Roman" font-size="14.00">data</text>
</g>
<!-- p5 -->
<g id="node7" class="node">
<title>p5</title>
<ellipse fill="none" stroke="black" cx="159.5" cy="-1122.3" rx="3.5" ry="3.5"/>
<text text-anchor="middle" x="140.5" y="-1129.6" font-family="Times-Roman" font-size="14.00">map</text>
</g>
<!-- p1&#45;&gt;p5 -->
<g id="edge6" class="edge">
<title>p1&#45;&gt;p5</title>
<path fill="none" stroke="black" d="M210.14,-1183.19C200.45,-1182.68 172.43,-1179.74 160.5,-1162.8 154.98,-1154.96 155.19,-1143.91 156.52,-1135.49"/>
<polygon fill="black" stroke="black" points="159.94,-1136.24 158.73,-1125.71 153.11,-1134.7 159.94,-1136.24"/>
<text text-anchor="middle" x="176" y="-1151.6" font-family="Times-Roman" font-size="14.00">data</text>
</g>
<!-- p7 -->
<g id="node8" class="node">
<title>p7</title>
<ellipse fill="none" stroke="black" cx="69.5" cy="-1045.8" rx="40.89" ry="18"/>
<text text-anchor="middle" x="69.5" y="-1042.1" font-family="Times-Roman" font-size="14.00">fq_raw</text>
</g>
<!-- p1&#45;&gt;p7 -->
<g id="edge9" class="edge">
<title>p1&#45;&gt;p7</title>
<path fill="none" stroke="black" d="M210,-1183.29C191.6,-1183.05 105.61,-1179.24 71.5,-1129.8 60.38,-1113.69 60.5,-1091.31 63.06,-1073.85"/>
<polygon fill="black" stroke="black" points="66.55,-1074.18 64.89,-1063.72 59.67,-1072.93 66.55,-1074.18"/>
<text text-anchor="middle" x="87" y="-1118.6" font-family="Times-Roman" font-size="14.00">data</text>
</g>
<!-- p10 -->
<g id="node13" class="node">
<title>p10</title>
<ellipse fill="none" stroke="black" cx="363.5" cy="-1122.3" rx="3.5" ry="3.5"/>
<text text-anchor="middle" x="344.5" y="-1129.6" font-family="Times-Roman" font-size="14.00">map</text>
</g>
<!-- p1&#45;&gt;p10 -->
<g id="edge13" class="edge">
<title>p1&#45;&gt;p10</title>
<path fill="none" stroke="black" d="M216.79,-1182.28C225.89,-1179.45 252.16,-1171.11 273.5,-1162.8 301.92,-1151.73 334.53,-1136.86 351.62,-1128.9"/>
<polygon fill="black" stroke="black" points="353.17,-1132.04 360.74,-1124.62 350.2,-1125.7 353.17,-1132.04"/>
<text text-anchor="middle" x="324" y="-1151.6" font-family="Times-Roman" font-size="14.00">data</text>
</g>
<!-- p12 -->
<g id="node14" class="node">
<title>p12</title>
<ellipse fill="none" stroke="black" cx="311.5" cy="-1045.8" rx="68.49" ry="18"/>
<text text-anchor="middle" x="311.5" y="-1042.1" font-family="Times-Roman" font-size="14.00">trimmomatic</text>
</g>
<!-- p1&#45;&gt;p12 -->
<g id="edge16" class="edge">
<title>p1&#45;&gt;p12</title>
<path fill="none" stroke="black" d="M216.54,-1182.05C222.73,-1179.36 236.93,-1172.49 245.5,-1162.8 261.17,-1145.08 257.05,-1135.5 268.5,-1114.8 276.44,-1100.44 286.15,-1084.94 294.33,-1072.37"/>
<polygon fill="black" stroke="black" points="297.4,-1074.07 299.97,-1063.79 291.56,-1070.22 297.4,-1074.07"/>
<text text-anchor="middle" x="284" y="-1118.6" font-family="Times-Roman" font-size="14.00">data</text>
</g>
<!-- p3 -->
<g id="node4" class="node">
<title>p3</title>
<ellipse fill="none" stroke="black" cx="222.5" cy="-1002.3" rx="3.5" ry="3.5"/>
<text text-anchor="middle" x="243" y="-1009.6" font-family="Times-Roman" font-size="14.00">reduce</text>
</g>
<!-- p2&#45;&gt;p3 -->
<g id="edge3" class="edge">
<title>p2&#45;&gt;p3</title>
<path fill="none" stroke="black" d="M214.77,-1085.47C215.78,-1074.74 219.41,-1036.12 221.32,-1015.88"/>
<polygon fill="black" stroke="black" points="224.8,-1016.17 222.26,-1005.88 217.84,-1015.51 224.8,-1016.17"/>
</g>
<!-- p4 -->
<g id="node5" class="node">
<title>p4</title>
<ellipse fill="none" stroke="black" cx="207.5" cy="-734.8" rx="70.39" ry="18"/>
<text text-anchor="middle" x="207.5" y="-731.1" font-family="Times-Roman" font-size="14.00">make_popfile</text>
</g>
<!-- p3&#45;&gt;p4 -->
<g id="edge4" class="edge">
<title>p3&#45;&gt;p4</title>
<path fill="none" stroke="black" d="M223.9,-999.03C229.69,-989.42 251.5,-950.91 251.5,-916.3 251.5,-916.3 251.5,-916.3 251.5,-798.3 251.5,-783.92 243.61,-770.51 234.52,-759.83"/>
<polygon fill="black" stroke="black" points="236.82,-757.16 227.44,-752.23 231.69,-761.93 236.82,-757.16"/>
</g>
<!-- p28 -->
<g id="node6" class="node">
<title>p28</title>
<ellipse fill="none" stroke="black" cx="458.5" cy="-647.8" rx="44.39" ry="18"/>
<text text-anchor="middle" x="458.5" y="-644.1" font-family="Times-Roman" font-size="14.00">cstacks</text>
</g>
<!-- p4&#45;&gt;p28 -->
<g id="edge5" class="edge">
<title>p4&#45;&gt;p28</title>
<path fill="none" stroke="black" d="M248.11,-720.05C294.22,-704.43 369.12,-679.07 416,-663.19"/>
<polygon fill="black" stroke="black" points="417.21,-666.48 425.56,-659.95 414.97,-659.85 417.21,-666.48"/>
</g>
<!-- p33 -->
<g id="node32" class="node">
<title>p33</title>
<ellipse fill="none" stroke="black" cx="377.5" cy="-560.8" rx="44.39" ry="18"/>
<text text-anchor="middle" x="377.5" y="-557.1" font-family="Times-Roman" font-size="14.00">sstacks</text>
</g>
<!-- p4&#45;&gt;p33 -->
<g id="edge45" class="edge">
<title>p4&#45;&gt;p33</title>
<path fill="none" stroke="black" d="M217.64,-716.7C231.01,-694.99 256.08,-657.09 283.5,-629.8 301.99,-611.4 325.82,-594.22 344.87,-581.73"/>
<polygon fill="black" stroke="black" points="347,-584.52 353.51,-576.16 343.21,-578.63 347,-584.52"/>
<text text-anchor="middle" x="312.5" y="-644.1" font-family="Times-Roman" font-size="14.00">popmap</text>
</g>
<!-- p40 -->
<g id="node37" class="node">
<title>p40</title>
<ellipse fill="none" stroke="black" cx="347.5" cy="-473.8" rx="50.09" ry="18"/>
<text text-anchor="middle" x="347.5" y="-470.1" font-family="Times-Roman" font-size="14.00">tsv2bam</text>
</g>
<!-- p4&#45;&gt;p40 -->
<g id="edge57" class="edge">
<title>p4&#45;&gt;p40</title>
<path fill="none" stroke="black" d="M199.61,-716.8C188.48,-690.35 171.16,-638.08 186.5,-596.8 195.39,-572.87 240.77,-524.69 261.5,-509.8 273.19,-501.4 287.2,-494.6 300.47,-489.31"/>
<polygon fill="black" stroke="black" points="301.85,-492.53 309.97,-485.72 299.38,-485.98 301.85,-492.53"/>
<text text-anchor="middle" x="215.5" y="-600.6" font-family="Times-Roman" font-size="14.00">popmap</text>
</g>
<!-- p43 -->
<g id="node44" class="node">
<title>p43</title>
<ellipse fill="none" stroke="black" cx="268.5" cy="-386.8" rx="45.49" ry="18"/>
<text text-anchor="middle" x="268.5" y="-383.1" font-family="Times-Roman" font-size="14.00">gstacks</text>
</g>
<!-- p4&#45;&gt;p43 -->
<g id="edge62" class="edge">
<title>p4&#45;&gt;p43</title>
<path fill="none" stroke="black" d="M192.68,-716.96C165.29,-683.72 111.63,-607.27 135.5,-542.8 138.43,-534.89 210.51,-453.08 247.3,-411.62"/>
<polygon fill="black" stroke="black" points="250.14,-413.7 254.16,-403.89 244.9,-409.05 250.14,-413.7"/>
<text text-anchor="middle" x="164.5" y="-557.1" font-family="Times-Roman" font-size="14.00">popmap</text>
</g>
<!-- p49 -->
<g id="node47" class="node">
<title>p49</title>
<ellipse fill="none" stroke="black" cx="235.5" cy="-299.8" rx="63.89" ry="18"/>
<text text-anchor="middle" x="235.5" y="-296.1" font-family="Times-Roman" font-size="14.00">populations</text>
</g>
<!-- p4&#45;&gt;p49 -->
<g id="edge76" class="edge">
<title>p4&#45;&gt;p49</title>
<path fill="none" stroke="black" d="M160.72,-721.34C126.67,-709.12 86.5,-686.67 86.5,-648.8 86.5,-648.8 86.5,-648.8 86.5,-472.8 86.5,-404.24 154.97,-349.59 199.08,-321.5"/>
<polygon fill="black" stroke="black" points="201.17,-324.32 207.82,-316.07 197.48,-318.37 201.17,-324.32"/>
<text text-anchor="middle" x="115.5" y="-513.6" font-family="Times-Roman" font-size="14.00">popmap</text>
</g>
<!-- p28&#45;&gt;p33 -->
<g id="edge39" class="edge">
<title>p28&#45;&gt;p33</title>
<path fill="none" stroke="black" d="M443.26,-630.81C431.05,-617.99 413.72,-599.81 399.92,-585.32"/>
<polygon fill="black" stroke="black" points="402.1,-582.54 392.67,-577.72 397.03,-587.37 402.1,-582.54"/>
</g>
<!-- p28&#45;&gt;p33 -->
<g id="edge41" class="edge">
<title>p28&#45;&gt;p33</title>
<path fill="none" stroke="black" d="M448.24,-630.13C441.56,-619.94 432.3,-606.97 422.5,-596.8 417.9,-592.03 412.63,-587.36 407.36,-583.07"/>
<polygon fill="black" stroke="black" points="409.19,-580.06 399.16,-576.67 404.89,-585.58 409.19,-580.06"/>
<text text-anchor="middle" x="453.5" y="-600.6" font-family="Times-Roman" font-size="14.00">meta</text>
</g>
<!-- p29 -->
<g id="node33" class="node">
<title>p29</title>
<ellipse fill="black" stroke="black" cx="528.5" cy="-560.8" rx="1.8" ry="1.8"/>
</g>
<!-- p28&#45;&gt;p29 -->
<g id="edge40" class="edge">
<title>p28&#45;&gt;p29</title>
<path fill="none" stroke="black" d="M484.58,-633.22C493.44,-627.57 502.8,-620.33 509.5,-611.8 518.54,-600.3 523.65,-584.03 526.24,-573.2"/>
<polygon fill="black" stroke="black" points="529.72,-573.68 528.29,-563.18 522.86,-572.28 529.72,-573.68"/>
</g>
<!-- p28&#45;&gt;p40 -->
<g id="edge56" class="edge">
<title>p28&#45;&gt;p40</title>
<path fill="none" stroke="black" d="M469.95,-630.09C475.19,-620.36 479.44,-607.86 475.5,-596.8 467.13,-573.29 423.29,-526.23 404.5,-509.8 398.23,-504.32 391,-499.16 383.84,-494.58"/>
<polygon fill="black" stroke="black" points="385.24,-491.33 374.88,-489.09 381.59,-497.3 385.24,-491.33"/>
<text text-anchor="middle" x="491" y="-557.1" font-family="Times-Roman" font-size="14.00">catalog</text>
</g>
<!-- p28&#45;&gt;p49 -->
<g id="edge73" class="edge">
<title>p28&#45;&gt;p49</title>
<path fill="none" stroke="black" d="M490.42,-635.16C519.68,-622.19 558.5,-598.14 558.5,-561.8 558.5,-561.8 558.5,-561.8 558.5,-385.8 558.5,-352.1 532.19,-349.71 501.5,-335.8 467.85,-320.55 373.79,-310.76 307.1,-305.52"/>
<polygon fill="black" stroke="black" points="307.29,-302.03 297.05,-304.75 306.75,-309.01 307.29,-302.03"/>
<text text-anchor="middle" x="584" y="-470.1" font-family="Times-Roman" font-size="14.00">catalog</text>
</g>
<!-- p5&#45;&gt;p7 -->
<g id="edge7" class="edge">
<title>p5&#45;&gt;p7</title>
<path fill="none" stroke="black" d="M158.99,-1118.43C157.58,-1111.35 153.05,-1092.79 142.5,-1081.8 133.98,-1072.93 122.76,-1066.03 111.67,-1060.8"/>
<polygon fill="black" stroke="black" points="113.03,-1057.57 102.46,-1056.79 110.23,-1063.99 113.03,-1057.57"/>
</g>
<!-- p51 -->
<g id="node10" class="node">
<title>p51</title>
<ellipse fill="none" stroke="black" cx="67.5" cy="-871.8" rx="3.5" ry="3.5"/>
<text text-anchor="middle" x="41" y="-879.1" font-family="Times-Roman" font-size="14.00">concat</text>
</g>
<!-- p7&#45;&gt;p51 -->
<g id="edge10" class="edge">
<title>p7&#45;&gt;p51</title>
<path fill="none" stroke="black" d="M58.51,-1028.31C50.36,-1015.04 39.93,-995.56 35.5,-976.8 31.82,-961.23 32.01,-956.41 35.5,-940.8 40.26,-919.53 52.43,-897.06 60.32,-884.02"/>
<polygon fill="black" stroke="black" points="63.48,-885.57 65.85,-875.25 57.56,-881.84 63.48,-885.57"/>
</g>
<!-- p9 -->
<g id="node11" class="node">
<title>p9</title>
<ellipse fill="black" stroke="black" cx="46.5" cy="-958.8" rx="1.8" ry="1.8"/>
</g>
<!-- p7&#45;&gt;p9 -->
<g id="edge11" class="edge">
<title>p7&#45;&gt;p9</title>
<path fill="none" stroke="black" d="M64.85,-1027.6C60.23,-1010.54 53.3,-984.94 49.41,-970.57"/>
<polygon fill="black" stroke="black" points="52.78,-969.62 46.79,-960.88 46.03,-971.45 52.78,-969.62"/>
</g>
<!-- p8 -->
<g id="node12" class="node">
<title>p8</title>
<ellipse fill="black" stroke="black" cx="76.5" cy="-958.8" rx="1.8" ry="1.8"/>
</g>
<!-- p7&#45;&gt;p8 -->
<g id="edge12" class="edge">
<title>p7&#45;&gt;p8</title>
<path fill="none" stroke="black" d="M70.92,-1027.6C72.31,-1010.72 74.39,-985.46 75.58,-971.02"/>
<polygon fill="black" stroke="black" points="79.08,-971.14 76.41,-960.88 72.1,-970.56 79.08,-971.14"/>
<text text-anchor="middle" x="91.5" y="-998.6" font-family="Times-Roman" font-size="14.00">meta</text>
</g>
<!-- p6 -->
<g id="node9" class="node">
<title>p6</title>
<ellipse fill="black" stroke="black" cx="115.5" cy="-1122.3" rx="3.6" ry="3.6"/>
</g>
<!-- p6&#45;&gt;p7 -->
<g id="edge8" class="edge">
<title>p6&#45;&gt;p7</title>
<path fill="none" stroke="black" d="M113.97,-1118.82C109.51,-1111.6 96.15,-1089.96 85.22,-1072.27"/>
<polygon fill="black" stroke="black" points="88.03,-1070.14 79.79,-1063.47 82.07,-1073.82 88.03,-1070.14"/>
<text text-anchor="middle" x="119" y="-1085.6" font-family="Times-Roman" font-size="14.00">stage</text>
</g>
<!-- p52 -->
<g id="node17" class="node">
<title>p52</title>
<ellipse fill="none" stroke="black" cx="67.5" cy="-799.3" rx="3.5" ry="3.5"/>
<text text-anchor="middle" x="41" y="-806.6" font-family="Times-Roman" font-size="14.00">concat</text>
</g>
<!-- p51&#45;&gt;p52 -->
<g id="edge81" class="edge">
<title>p51&#45;&gt;p52</title>
<path fill="none" stroke="black" d="M67.5,-868.12C67.5,-859.22 67.5,-830.24 67.5,-813.17"/>
<polygon fill="black" stroke="black" points="71,-812.98 67.5,-802.98 64,-812.98 71,-812.98"/>
</g>
<!-- p10&#45;&gt;p12 -->
<g id="edge14" class="edge">
<title>p10&#45;&gt;p12</title>
<path fill="none" stroke="black" d="M365.51,-1119.01C370.81,-1112.71 384.2,-1094.69 376.5,-1081.8 372.66,-1075.37 367.19,-1070.05 361.02,-1065.67"/>
<polygon fill="black" stroke="black" points="362.63,-1062.55 352.28,-1060.27 358.95,-1068.5 362.63,-1062.55"/>
</g>
<!-- p14 -->
<g id="node16" class="node">
<title>p14</title>
<ellipse fill="none" stroke="black" cx="189.5" cy="-958.8" rx="34.39" ry="18"/>
<text text-anchor="middle" x="189.5" y="-955.1" font-family="Times-Roman" font-size="14.00">fq_tri</text>
</g>
<!-- p12&#45;&gt;p14 -->
<g id="edge17" class="edge">
<title>p12&#45;&gt;p14</title>
<path fill="none" stroke="black" d="M285.26,-1029.07C275.76,-1023.21 265.03,-1016.37 255.5,-1009.8 242.17,-1000.61 227.79,-989.83 215.86,-980.63"/>
<polygon fill="black" stroke="black" points="217.71,-977.63 207.67,-974.26 213.41,-983.16 217.71,-977.63"/>
</g>
<!-- p12&#45;&gt;p14 -->
<g id="edge19" class="edge">
<title>p12&#45;&gt;p14</title>
<path fill="none" stroke="black" d="M293.9,-1028.3C282.54,-1018.06 267.19,-1004.96 252.5,-994.8 243.22,-988.38 232.66,-982.14 222.87,-976.75"/>
<polygon fill="black" stroke="black" points="224.26,-973.52 213.8,-971.87 220.94,-979.69 224.26,-973.52"/>
<text text-anchor="middle" x="289.5" y="-998.6" font-family="Times-Roman" font-size="14.00">meta</text>
</g>
<!-- p12&#45;&gt;p52 -->
<g id="edge18" class="edge">
<title>p12&#45;&gt;p52</title>
<path fill="none" stroke="black" d="M245.98,-1040.44C218.93,-1035.92 188.57,-1027.04 165.5,-1009.8 151.94,-999.67 153.99,-991.98 146.5,-976.8 113.25,-909.45 117.31,-886.82 81.5,-820.8 79.67,-817.42 77.42,-813.91 75.26,-810.77"/>
<polygon fill="black" stroke="black" points="78.02,-808.62 69.3,-802.6 72.36,-812.74 78.02,-808.62"/>
</g>
<!-- p18 -->
<g id="node21" class="node">
<title>p18</title>
<ellipse fill="none" stroke="black" cx="489.5" cy="-958.8" rx="84.49" ry="18"/>
<text text-anchor="middle" x="489.5" y="-955.1" font-family="Times-Roman" font-size="14.00">process_radtags</text>
</g>
<!-- p12&#45;&gt;p18 -->
<g id="edge24" class="edge">
<title>p12&#45;&gt;p18</title>
<path fill="none" stroke="black" d="M336.17,-1028.76C352.82,-1018.32 375.49,-1004.84 396.5,-994.8 409.28,-988.69 423.42,-982.91 436.74,-977.86"/>
<polygon fill="black" stroke="black" points="438.11,-981.08 446.26,-974.32 435.67,-974.52 438.11,-981.08"/>
</g>
<!-- p12&#45;&gt;p18 -->
<g id="edge26" class="edge">
<title>p12&#45;&gt;p18</title>
<path fill="none" stroke="black" d="M348.26,-1030.62C363.36,-1024.55 380.92,-1017.17 396.5,-1009.8 415.23,-1000.94 435.56,-990.15 452.42,-980.87"/>
<polygon fill="black" stroke="black" points="454.35,-983.8 461.4,-975.89 450.95,-977.68 454.35,-983.8"/>
<text text-anchor="middle" x="443.5" y="-998.6" font-family="Times-Roman" font-size="14.00">meta</text>
</g>
<!-- p22 -->
<g id="node23" class="node">
<title>p22</title>
<ellipse fill="none" stroke="black" cx="383.5" cy="-871.8" rx="45.49" ry="18"/>
<text text-anchor="middle" x="383.5" y="-868.1" font-family="Times-Roman" font-size="14.00">ustacks</text>
</g>
<!-- p12&#45;&gt;p22 -->
<g id="edge31" class="edge">
<title>p12&#45;&gt;p22</title>
<path fill="none" stroke="black" d="M313.15,-1027.56C315.66,-1006.37 321.58,-969.66 334.5,-940.8 341.55,-925.05 352.59,-909.29 362.41,-896.92"/>
<polygon fill="black" stroke="black" points="365.32,-898.89 368.94,-888.94 359.9,-894.46 365.32,-898.89"/>
<text text-anchor="middle" x="352.5" y="-955.1" font-family="Times-Roman" font-size="14.00">meta</text>
</g>
<!-- p11 -->
<g id="node15" class="node">
<title>p11</title>
<ellipse fill="black" stroke="black" cx="312.5" cy="-1122.3" rx="3.6" ry="3.6"/>
</g>
<!-- p11&#45;&gt;p12 -->
<g id="edge15" class="edge">
<title>p11&#45;&gt;p12</title>
<path fill="none" stroke="black" d="M312.46,-1118.47C312.36,-1111.16 312.09,-1091.04 311.86,-1073.97"/>
<polygon fill="black" stroke="black" points="315.36,-1073.83 311.73,-1063.87 308.36,-1073.92 315.36,-1073.83"/>
<text text-anchor="middle" x="344.5" y="-1085.6" font-family="Times-Roman" font-size="14.00">trimmers</text>
</g>
<!-- p14&#45;&gt;p51 -->
<g id="edge21" class="edge">
<title>p14&#45;&gt;p51</title>
<path fill="none" stroke="black" d="M169.63,-943.95C143.64,-925.85 99.01,-894.75 78.45,-880.43"/>
<polygon fill="black" stroke="black" points="80.33,-877.47 70.12,-874.63 76.33,-883.21 80.33,-877.47"/>
</g>
<!-- p16 -->
<g id="node19" class="node">
<title>p16</title>
<ellipse fill="black" stroke="black" cx="162.5" cy="-871.8" rx="1.8" ry="1.8"/>
</g>
<!-- p14&#45;&gt;p16 -->
<g id="edge22" class="edge">
<title>p14&#45;&gt;p16</title>
<path fill="none" stroke="black" d="M184.17,-941.01C178.76,-923.99 170.56,-898.18 165.95,-883.68"/>
<polygon fill="black" stroke="black" points="169.21,-882.37 162.85,-873.89 162.54,-884.48 169.21,-882.37"/>
</g>
<!-- p15 -->
<g id="node20" class="node">
<title>p15</title>
<ellipse fill="black" stroke="black" cx="195.5" cy="-871.8" rx="1.8" ry="1.8"/>
</g>
<!-- p14&#45;&gt;p15 -->
<g id="edge23" class="edge">
<title>p14&#45;&gt;p15</title>
<path fill="none" stroke="black" d="M190.71,-940.6C191.91,-923.72 193.69,-898.46 194.71,-884.02"/>
<polygon fill="black" stroke="black" points="198.21,-884.1 195.42,-873.88 191.23,-883.61 198.21,-884.1"/>
<text text-anchor="middle" x="211.5" y="-911.6" font-family="Times-Roman" font-size="14.00">meta</text>
</g>
<!-- p53 -->
<g id="node48" class="node">
<title>p53</title>
<ellipse fill="none" stroke="black" cx="148.5" cy="-299.8" rx="3.5" ry="3.5"/>
<text text-anchor="middle" x="122" y="-307.1" font-family="Times-Roman" font-size="14.00">concat</text>
</g>
<!-- p52&#45;&gt;p53 -->
<g id="edge82" class="edge">
<title>p52&#45;&gt;p53</title>
<path fill="none" stroke="black" d="M64.75,-797.01C53.36,-791.46 10.5,-768.4 10.5,-735.8 10.5,-735.8 10.5,-735.8 10.5,-385.8 10.5,-327.66 100.4,-308 135.08,-302.58"/>
<polygon fill="black" stroke="black" points="135.67,-306.03 145.09,-301.18 134.7,-299.1 135.67,-306.03"/>
</g>
<!-- p13 -->
<g id="node18" class="node">
<title>p13</title>
<ellipse fill="black" stroke="black" cx="174.5" cy="-1045.8" rx="3.6" ry="3.6"/>
</g>
<!-- p13&#45;&gt;p14 -->
<g id="edge20" class="edge">
<title>p13&#45;&gt;p14</title>
<path fill="none" stroke="black" d="M173.66,-1042.04C171.47,-1034.39 166.04,-1012.36 170.5,-994.8 171.32,-991.58 172.5,-988.34 173.87,-985.2"/>
<polygon fill="black" stroke="black" points="177.04,-986.69 178.43,-976.19 170.79,-983.53 177.04,-986.69"/>
<text text-anchor="middle" x="190" y="-998.6" font-family="Times-Roman" font-size="14.00">stage</text>
</g>
<!-- p18&#45;&gt;p22 -->
<g id="edge27" class="edge">
<title>p18&#45;&gt;p22</title>
<path fill="none" stroke="black" d="M468.81,-941.21C452.2,-927.89 428.73,-909.07 410.61,-894.54"/>
<polygon fill="black" stroke="black" points="412.7,-891.73 402.71,-888.2 408.32,-897.19 412.7,-891.73"/>
</g>
<!-- p20 -->
<g id="node24" class="node">
<title>p20</title>
<ellipse fill="black" stroke="black" cx="505.5" cy="-871.8" rx="1.8" ry="1.8"/>
</g>
<!-- p18&#45;&gt;p20 -->
<g id="edge28" class="edge">
<title>p18&#45;&gt;p20</title>
<path fill="none" stroke="black" d="M492.74,-940.6C495.92,-923.72 500.67,-898.46 503.39,-884.02"/>
<polygon fill="black" stroke="black" points="506.89,-884.36 505.3,-873.88 500.01,-883.06 506.89,-884.36"/>
</g>
<!-- p19 -->
<g id="node25" class="node">
<title>p19</title>
<ellipse fill="black" stroke="black" cx="538.5" cy="-871.8" rx="1.8" ry="1.8"/>
</g>
<!-- p18&#45;&gt;p19 -->
<g id="edge29" class="edge">
<title>p18&#45;&gt;p19</title>
<path fill="none" stroke="black" d="M500.47,-940.85C504.07,-935.16 508.03,-928.75 511.5,-922.8 519.42,-909.23 527.93,-893.19 533.24,-883.01"/>
<polygon fill="black" stroke="black" points="536.39,-884.55 537.86,-874.05 530.17,-881.33 536.39,-884.55"/>
<text text-anchor="middle" x="537.5" y="-911.6" font-family="Times-Roman" font-size="14.00">meta</text>
</g>
<!-- p37 -->
<g id="node41" class="node">
<title>p37</title>
<ellipse fill="none" stroke="black" cx="481.5" cy="-871.8" rx="3.5" ry="3.5"/>
<text text-anchor="middle" x="462.5" y="-879.1" font-family="Times-Roman" font-size="14.00">map</text>
</g>
<!-- p18&#45;&gt;p37 -->
<g id="edge53" class="edge">
<title>p18&#45;&gt;p37</title>
<path fill="none" stroke="black" d="M487.88,-940.6C486.36,-924.41 484.11,-900.51 482.73,-885.84"/>
<polygon fill="black" stroke="black" points="486.17,-885.07 481.75,-875.44 479.2,-885.72 486.17,-885.07"/>
</g>
<!-- p46 -->
<g id="node51" class="node">
<title>p46</title>
<ellipse fill="none" stroke="black" cx="615.5" cy="-871.8" rx="3.5" ry="3.5"/>
<text text-anchor="middle" x="596.5" y="-879.1" font-family="Times-Roman" font-size="14.00">map</text>
</g>
<!-- p18&#45;&gt;p46 -->
<g id="edge70" class="edge">
<title>p18&#45;&gt;p46</title>
<path fill="none" stroke="black" d="M525.06,-942.28C536.43,-936.74 548.82,-930.05 559.5,-922.8 577.52,-910.57 595.87,-893.01 606.44,-882.28"/>
<polygon fill="black" stroke="black" points="609.12,-884.55 613.53,-874.92 604.07,-879.7 609.12,-884.55"/>
</g>
<!-- p17 -->
<g id="node22" class="node">
<title>p17</title>
<ellipse fill="black" stroke="black" cx="489.5" cy="-1045.8" rx="3.6" ry="3.6"/>
</g>
<!-- p17&#45;&gt;p18 -->
<g id="edge25" class="edge">
<title>p17&#45;&gt;p18</title>
<path fill="none" stroke="black" d="M489.5,-1041.97C489.5,-1033.48 489.5,-1007.55 489.5,-987.07"/>
<polygon fill="black" stroke="black" points="493,-986.97 489.5,-976.97 486,-986.97 493,-986.97"/>
<text text-anchor="middle" x="505" y="-998.6" font-family="Times-Roman" font-size="14.00">args</text>
</g>
<!-- p24 -->
<g id="node27" class="node">
<title>p24</title>
<ellipse fill="none" stroke="black" cx="420.5" cy="-799.3" rx="3.5" ry="3.5"/>
<text text-anchor="middle" x="401.5" y="-806.6" font-family="Times-Roman" font-size="14.00">map</text>
</g>
<!-- p22&#45;&gt;p24 -->
<g id="edge32" class="edge">
<title>p22&#45;&gt;p24</title>
<path fill="none" stroke="black" d="M394.81,-854.03C398.43,-848.36 402.32,-841.91 405.5,-835.8 409.46,-828.2 413.22,-819.31 415.98,-812.33"/>
<polygon fill="black" stroke="black" points="419.26,-813.54 419.55,-802.95 412.72,-811.05 419.26,-813.54"/>
</g>
<!-- p23 -->
<g id="node28" class="node">
<title>p23</title>
<ellipse fill="black" stroke="black" cx="395.5" cy="-799.3" rx="1.8" ry="1.8"/>
</g>
<!-- p22&#45;&gt;p23 -->
<g id="edge33" class="edge">
<title>p22&#45;&gt;p23</title>
<path fill="none" stroke="black" d="M386.4,-853.73C388.67,-840.44 391.74,-822.39 393.67,-811.05"/>
<polygon fill="black" stroke="black" points="397.13,-811.57 395.36,-801.12 390.23,-810.39 397.13,-811.57"/>
</g>
<!-- p26 -->
<g id="node29" class="node">
<title>p26</title>
<ellipse fill="none" stroke="black" cx="453.5" cy="-774.3" rx="3.5" ry="3.5"/>
<text text-anchor="middle" x="427.5" y="-781.6" font-family="Times-Roman" font-size="14.00">collect</text>
</g>
<!-- p22&#45;&gt;p26 -->
<g id="edge34" class="edge">
<title>p22&#45;&gt;p26</title>
<path fill="none" stroke="black" d="M404.1,-855.45C410.83,-849.77 417.98,-842.97 423.5,-835.8 435.21,-820.59 444.21,-800.1 449.18,-787.3"/>
<polygon fill="black" stroke="black" points="452.5,-788.39 452.66,-777.8 445.93,-785.98 452.5,-788.39"/>
<text text-anchor="middle" x="451.5" y="-824.6" font-family="Times-Roman" font-size="14.00">meta</text>
</g>
<!-- p30 -->
<g id="node34" class="node">
<title>p30</title>
<ellipse fill="none" stroke="black" cx="371.5" cy="-799.3" rx="3.5" ry="3.5"/>
<text text-anchor="middle" x="352.5" y="-806.6" font-family="Times-Roman" font-size="14.00">map</text>
</g>
<!-- p22&#45;&gt;p30 -->
<g id="edge42" class="edge">
<title>p22&#45;&gt;p30</title>
<path fill="none" stroke="black" d="M380.6,-853.73C378.46,-841.18 375.6,-824.39 373.66,-813"/>
<polygon fill="black" stroke="black" points="377.08,-812.23 371.95,-802.96 370.18,-813.41 377.08,-812.23"/>
</g>
<!-- p35 -->
<g id="node39" class="node">
<title>p35</title>
<ellipse fill="none" stroke="black" cx="328.5" cy="-799.3" rx="3.5" ry="3.5"/>
<text text-anchor="middle" x="309.5" y="-806.6" font-family="Times-Roman" font-size="14.00">map</text>
</g>
<!-- p22&#45;&gt;p35 -->
<g id="edge50" class="edge">
<title>p22&#45;&gt;p35</title>
<path fill="none" stroke="black" d="M370.74,-854.45C360.25,-840.99 345.68,-822.33 336.69,-810.8"/>
<polygon fill="black" stroke="black" points="339.18,-808.3 330.27,-802.57 333.66,-812.6 339.18,-808.3"/>
</g>
<!-- p44 -->
<g id="node49" class="node">
<title>p44</title>
<ellipse fill="none" stroke="black" cx="286.5" cy="-799.3" rx="3.5" ry="3.5"/>
<text text-anchor="middle" x="267.5" y="-806.6" font-family="Times-Roman" font-size="14.00">map</text>
</g>
<!-- p22&#45;&gt;p44 -->
<g id="edge67" class="edge">
<title>p22&#45;&gt;p44</title>
<path fill="none" stroke="black" d="M362.45,-855.5C342.35,-840.89 312.87,-819.47 297.21,-808.08"/>
<polygon fill="black" stroke="black" points="299,-805.06 288.85,-802.01 294.89,-810.72 299,-805.06"/>
</g>
<!-- p21 -->
<g id="node26" class="node">
<title>p21</title>
<ellipse fill="black" stroke="black" cx="383.5" cy="-958.8" rx="3.6" ry="3.6"/>
</g>
<!-- p21&#45;&gt;p22 -->
<g id="edge30" class="edge">
<title>p21&#45;&gt;p22</title>
<path fill="none" stroke="black" d="M383.5,-954.97C383.5,-946.48 383.5,-920.55 383.5,-900.07"/>
<polygon fill="black" stroke="black" points="387,-899.97 383.5,-889.97 380,-899.97 387,-899.97"/>
<text text-anchor="middle" x="399" y="-911.6" font-family="Times-Roman" font-size="14.00">args</text>
</g>
<!-- p25 -->
<g id="node30" class="node">
<title>p25</title>
<ellipse fill="none" stroke="black" cx="421.5" cy="-734.8" rx="3.5" ry="3.5"/>
<text text-anchor="middle" x="395.5" y="-742.1" font-family="Times-Roman" font-size="14.00">collect</text>
</g>
<!-- p24&#45;&gt;p25 -->
<g id="edge35" class="edge">
<title>p24&#45;&gt;p25</title>
<path fill="none" stroke="black" d="M420.54,-795.61C420.67,-787.66 421.05,-763.86 421.29,-748.78"/>
<polygon fill="black" stroke="black" points="424.8,-748.46 421.46,-738.41 417.8,-748.35 424.8,-748.46"/>
</g>
<!-- p26&#45;&gt;p28 -->
<g id="edge37" class="edge">
<title>p26&#45;&gt;p28</title>
<path fill="none" stroke="black" d="M453.6,-770.7C454.09,-758.72 456.12,-708.02 457.41,-675.9"/>
<polygon fill="black" stroke="black" points="460.91,-675.94 457.82,-665.81 453.92,-675.66 460.91,-675.94"/>
</g>
<!-- p25&#45;&gt;p28 -->
<g id="edge36" class="edge">
<title>p25&#45;&gt;p28</title>
<path fill="none" stroke="black" d="M422.33,-731.03C424.67,-723.37 431.65,-701.31 439.5,-683.8 440.86,-680.77 442.37,-677.65 443.94,-674.57"/>
<polygon fill="black" stroke="black" points="447.09,-676.1 448.69,-665.63 440.91,-672.82 447.09,-676.1"/>
</g>
<!-- p27 -->
<g id="node31" class="node">
<title>p27</title>
<ellipse fill="black" stroke="black" cx="486.5" cy="-734.8" rx="3.6" ry="3.6"/>
</g>
<!-- p27&#45;&gt;p28 -->
<g id="edge38" class="edge">
<title>p27&#45;&gt;p28</title>
<path fill="none" stroke="black" d="M485.57,-730.97C482.75,-722.41 474.07,-696.08 467.3,-675.5"/>
<polygon fill="black" stroke="black" points="470.61,-674.37 464.16,-665.97 463.96,-676.56 470.61,-674.37"/>
<text text-anchor="middle" x="490" y="-687.6" font-family="Times-Roman" font-size="14.00">args</text>
</g>
<!-- p33&#45;&gt;p40 -->
<g id="edge47" class="edge">
<title>p33&#45;&gt;p40</title>
<path fill="none" stroke="black" d="M368.51,-543C365.7,-537.33 362.74,-530.88 360.5,-524.8 357.81,-517.51 355.45,-509.43 353.51,-501.93"/>
<polygon fill="black" stroke="black" points="356.9,-501.06 351.13,-492.18 350.11,-502.73 356.9,-501.06"/>
</g>
<!-- p33&#45;&gt;p40 -->
<g id="edge49" class="edge">
<title>p33&#45;&gt;p40</title>
<path fill="none" stroke="black" d="M371.43,-542.6C367.25,-530.77 361.63,-514.83 356.88,-501.38"/>
<polygon fill="black" stroke="black" points="360.09,-499.95 353.46,-491.69 353.49,-502.28 360.09,-499.95"/>
<text text-anchor="middle" x="382.5" y="-513.6" font-family="Times-Roman" font-size="14.00">meta</text>
</g>
<!-- p34 -->
<g id="node38" class="node">
<title>p34</title>
<ellipse fill="black" stroke="black" cx="430.5" cy="-473.8" rx="1.8" ry="1.8"/>
</g>
<!-- p33&#45;&gt;p34 -->
<g id="edge48" class="edge">
<title>p33&#45;&gt;p34</title>
<path fill="none" stroke="black" d="M391.03,-543.5C395.55,-537.75 400.45,-531.14 404.5,-524.8 412.89,-511.67 420.9,-495.53 425.76,-485.2"/>
<polygon fill="black" stroke="black" points="428.95,-486.63 429.94,-476.08 422.59,-483.72 428.95,-486.63"/>
</g>
<!-- p33&#45;&gt;p49 -->
<g id="edge74" class="edge">
<title>p33&#45;&gt;p49</title>
<path fill="none" stroke="black" d="M350.84,-546.36C320.01,-530.57 271.44,-504.87 255.5,-491.8 231.12,-471.81 220.39,-467.39 209.5,-437.8 195.81,-400.61 210.26,-354.96 222.46,-326.88"/>
<polygon fill="black" stroke="black" points="225.67,-328.28 226.63,-317.73 219.3,-325.37 225.67,-328.28"/>
<text text-anchor="middle" x="237" y="-426.6" font-family="Times-Roman" font-size="14.00">maches</text>
</g>
<!-- p31 -->
<g id="node35" class="node">
<title>p31</title>
<ellipse fill="none" stroke="black" cx="379.5" cy="-691.3" rx="3.5" ry="3.5"/>
<text text-anchor="middle" x="353.5" y="-698.6" font-family="Times-Roman" font-size="14.00">collect</text>
</g>
<!-- p30&#45;&gt;p31 -->
<g id="edge43" class="edge">
<title>p30&#45;&gt;p31</title>
<path fill="none" stroke="black" d="M371.7,-795.68C372.64,-783.25 376.67,-729.79 378.54,-705.01"/>
<polygon fill="black" stroke="black" points="382.05,-705.06 379.31,-694.83 375.07,-704.54 382.05,-705.06"/>
</g>
<!-- p31&#45;&gt;p33 -->
<g id="edge44" class="edge">
<title>p31&#45;&gt;p33</title>
<path fill="none" stroke="black" d="M379.46,-687.62C379.26,-675.18 378.44,-622.38 377.93,-589.26"/>
<polygon fill="black" stroke="black" points="381.42,-588.81 377.77,-578.86 374.42,-588.92 381.42,-588.81"/>
</g>
<!-- p32 -->
<g id="node36" class="node">
<title>p32</title>
<ellipse fill="black" stroke="black" cx="354.5" cy="-647.8" rx="3.6" ry="3.6"/>
</g>
<!-- p32&#45;&gt;p33 -->
<g id="edge46" class="edge">
<title>p32&#45;&gt;p33</title>
<path fill="none" stroke="black" d="M352.82,-644.43C347.87,-637.11 334.1,-614.32 341.5,-596.8 343.43,-592.22 346.29,-587.95 349.56,-584.07"/>
<polygon fill="black" stroke="black" points="352.27,-586.31 356.71,-576.69 347.24,-581.44 352.27,-586.31"/>
<text text-anchor="middle" x="357" y="-600.6" font-family="Times-Roman" font-size="14.00">args</text>
</g>
<!-- p40&#45;&gt;p43 -->
<g id="edge59" class="edge">
<title>p40&#45;&gt;p43</title>
<path fill="none" stroke="black" d="M332.27,-456.41C320.39,-443.63 303.73,-425.7 290.42,-411.38"/>
<polygon fill="black" stroke="black" points="292.79,-408.79 283.42,-403.85 287.66,-413.56 292.79,-408.79"/>
</g>
<!-- p40&#45;&gt;p43 -->
<g id="edge61" class="edge">
<title>p40&#45;&gt;p43</title>
<path fill="none" stroke="black" d="M341.6,-455.69C337.42,-445.34 331.04,-432.35 322.5,-422.8 317.16,-416.83 310.57,-411.45 303.86,-406.81"/>
<polygon fill="black" stroke="black" points="305.67,-403.82 295.37,-401.34 301.87,-409.7 305.67,-403.82"/>
<text text-anchor="middle" x="351.5" y="-426.6" font-family="Times-Roman" font-size="14.00">meta</text>
</g>
<!-- p41 -->
<g id="node45" class="node">
<title>p41</title>
<ellipse fill="black" stroke="black" cx="485.5" cy="-386.8" rx="1.8" ry="1.8"/>
</g>
<!-- p40&#45;&gt;p41 -->
<g id="edge60" class="edge">
<title>p40&#45;&gt;p41</title>
<path fill="none" stroke="black" d="M377.75,-459.34C403.52,-447.12 440.81,-427.54 469.5,-404.8 472.61,-402.34 475.68,-399.27 478.29,-396.42"/>
<polygon fill="black" stroke="black" points="481.18,-398.42 484.95,-388.52 475.83,-393.91 481.18,-398.42"/>
</g>
<!-- p40&#45;&gt;p49 -->
<g id="edge75" class="edge">
<title>p40&#45;&gt;p49</title>
<path fill="none" stroke="black" d="M363.88,-456.56C371.51,-446.98 378.01,-434.48 373.5,-422.8 355.57,-376.39 308.46,-341.32 274.26,-320.96"/>
<polygon fill="black" stroke="black" points="275.84,-317.83 265.43,-315.86 272.33,-323.89 275.84,-317.83"/>
<text text-anchor="middle" x="398" y="-383.1" font-family="Times-Roman" font-size="14.00">bam_files</text>
</g>
<!-- p36 -->
<g id="node40" class="node">
<title>p36</title>
<ellipse fill="none" stroke="black" cx="257.5" cy="-604.3" rx="3.5" ry="3.5"/>
<text text-anchor="middle" x="276.5" y="-611.6" font-family="Times-Roman" font-size="14.00">collect</text>
</g>
<!-- p35&#45;&gt;p36 -->
<g id="edge51" class="edge">
<title>p35&#45;&gt;p36</title>
<path fill="none" stroke="black" d="M329.05,-795.6C332.38,-778.61 348.24,-685.4 308.5,-629.8 299.68,-617.46 282.95,-611.1 271.06,-607.98"/>
<polygon fill="black" stroke="black" points="271.47,-604.49 260.95,-605.81 269.99,-611.34 271.47,-604.49"/>
</g>
<!-- p36&#45;&gt;p40 -->
<g id="edge52" class="edge">
<title>p36&#45;&gt;p40</title>
<path fill="none" stroke="black" d="M259.06,-601.07C267.33,-589.26 306.51,-533.32 329.86,-499.99"/>
<polygon fill="black" stroke="black" points="332.84,-501.84 335.71,-491.64 327.1,-497.82 332.84,-501.84"/>
</g>
<!-- p38 -->
<g id="node42" class="node">
<title>p38</title>
<ellipse fill="none" stroke="black" cx="557.5" cy="-691.3" rx="3.5" ry="3.5"/>
<text text-anchor="middle" x="531.5" y="-698.6" font-family="Times-Roman" font-size="14.00">collect</text>
</g>
<!-- p37&#45;&gt;p38 -->
<g id="edge54" class="edge">
<title>p37&#45;&gt;p38</title>
<path fill="none" stroke="black" d="M482.57,-868.28C490.23,-850.31 536.6,-741.39 552.31,-704.5"/>
<polygon fill="black" stroke="black" points="555.66,-705.56 556.36,-694.99 549.22,-702.82 555.66,-705.56"/>
</g>
<!-- p38&#45;&gt;p40 -->
<g id="edge55" class="edge">
<title>p38&#45;&gt;p40</title>
<path fill="none" stroke="black" d="M558.13,-687.48C561.57,-671.26 576.62,-589.09 539.5,-542.8 521.56,-520.43 449.29,-499.11 398.73,-486.49"/>
<polygon fill="black" stroke="black" points="399.47,-483.07 388.93,-484.08 397.8,-489.87 399.47,-483.07"/>
</g>
<!-- p39 -->
<g id="node43" class="node">
<title>p39</title>
<ellipse fill="black" stroke="black" cx="250.5" cy="-560.8" rx="3.6" ry="3.6"/>
</g>
<!-- p39&#45;&gt;p40 -->
<g id="edge58" class="edge">
<title>p39&#45;&gt;p40</title>
<path fill="none" stroke="black" d="M251.23,-557.16C253.57,-549.08 261.68,-524.31 276.5,-509.8 284.17,-502.3 293.76,-496.12 303.39,-491.15"/>
<polygon fill="black" stroke="black" points="305.06,-494.23 312.57,-486.75 302.04,-487.91 305.06,-494.23"/>
<text text-anchor="middle" x="292" y="-513.6" font-family="Times-Roman" font-size="14.00">args</text>
</g>
<!-- p43&#45;&gt;p49 -->
<g id="edge64" class="edge">
<title>p43&#45;&gt;p49</title>
<path fill="none" stroke="black" d="M258.43,-369.08C255.29,-363.41 251.99,-356.95 249.5,-350.8 246.52,-343.45 243.93,-335.24 241.82,-327.64"/>
<polygon fill="black" stroke="black" points="245.16,-326.57 239.25,-317.78 238.39,-328.34 245.16,-326.57"/>
</g>
<!-- p43&#45;&gt;p49 -->
<g id="edge66" class="edge">
<title>p43&#45;&gt;p49</title>
<path fill="none" stroke="black" d="M261.82,-368.6C257.26,-356.85 251.12,-341.04 245.92,-327.64"/>
<polygon fill="black" stroke="black" points="249.05,-326.03 242.17,-317.98 242.52,-328.56 249.05,-326.03"/>
<text text-anchor="middle" x="272.5" y="-339.6" font-family="Times-Roman" font-size="14.00">meta</text>
</g>
<!-- p43&#45;&gt;p53 -->
<g id="edge65" class="edge">
<title>p43&#45;&gt;p53</title>
<path fill="none" stroke="black" d="M242.09,-371.93C219.63,-359.44 187.19,-339.72 162.5,-317.8 160.46,-315.98 158.46,-313.86 156.65,-311.73"/>
<polygon fill="black" stroke="black" points="159.14,-309.23 150.27,-303.43 153.59,-313.5 159.14,-309.23"/>
</g>
<!-- p42 -->
<g id="node46" class="node">
<title>p42</title>
<ellipse fill="black" stroke="black" cx="268.5" cy="-473.8" rx="3.6" ry="3.6"/>
</g>
<!-- p42&#45;&gt;p43 -->
<g id="edge63" class="edge">
<title>p42&#45;&gt;p43</title>
<path fill="none" stroke="black" d="M268.5,-469.97C268.5,-461.48 268.5,-435.55 268.5,-415.07"/>
<polygon fill="black" stroke="black" points="272,-414.97 268.5,-404.97 265,-414.97 272,-414.97"/>
<text text-anchor="middle" x="284" y="-426.6" font-family="Times-Roman" font-size="14.00">args</text>
</g>
<!-- p50 -->
<g id="node54" class="node">
<title>p50</title>
<ellipse fill="black" stroke="black" cx="240.5" cy="-241.3" rx="1.8" ry="1.8"/>
</g>
<!-- p49&#45;&gt;p50 -->
<g id="edge78" class="edge">
<title>p49&#45;&gt;p50</title>
<path fill="none" stroke="black" d="M237.03,-281.54C237.84,-272.34 238.82,-261.3 239.53,-253.27"/>
<polygon fill="black" stroke="black" points="243.02,-253.57 240.41,-243.3 236.04,-252.96 243.02,-253.57"/>
</g>
<!-- p54 -->
<g id="node55" class="node">
<title>p54</title>
<ellipse fill="none" stroke="black" cx="170.5" cy="-241.3" rx="3.5" ry="3.5"/>
<text text-anchor="middle" x="144" y="-248.6" font-family="Times-Roman" font-size="14.00">concat</text>
</g>
<!-- p49&#45;&gt;p54 -->
<g id="edge79" class="edge">
<title>p49&#45;&gt;p54</title>
<path fill="none" stroke="black" d="M216.7,-282.46C204.9,-272.2 190.15,-259.38 180.54,-251.03"/>
<polygon fill="black" stroke="black" points="182.56,-248.15 172.72,-244.23 177.97,-253.43 182.56,-248.15"/>
</g>
<!-- p58 -->
<g id="node56" class="node">
<title>p58</title>
<ellipse fill="none" stroke="black" cx="210.5" cy="-72.6" rx="44.39" ry="18"/>
<text text-anchor="middle" x="210.5" y="-68.9" font-family="Times-Roman" font-size="14.00">multiqc</text>
</g>
<!-- p49&#45;&gt;p58 -->
<g id="edge80" class="edge">
<title>p49&#45;&gt;p58</title>
<path fill="none" stroke="black" d="M223.59,-281.84C217.15,-271.04 210.5,-256.46 210.5,-242.3 210.5,-242.3 210.5,-242.3 210.5,-144.2 210.5,-129.93 210.5,-114.04 210.5,-100.96"/>
<polygon fill="black" stroke="black" points="214,-100.72 210.5,-90.72 207,-100.72 214,-100.72"/>
<text text-anchor="middle" x="228.5" y="-189.6" font-family="Times-Roman" font-size="14.00">meta</text>
</g>
<!-- p53&#45;&gt;p54 -->
<g id="edge83" class="edge">
<title>p53&#45;&gt;p54</title>
<path fill="none" stroke="black" d="M149.45,-296.37C152.22,-289.25 160.47,-268.05 165.78,-254.41"/>
<polygon fill="black" stroke="black" points="169.12,-255.5 169.48,-244.91 162.59,-252.96 169.12,-255.5"/>
</g>
<!-- p45 -->
<g id="node50" class="node">
<title>p45</title>
<ellipse fill="none" stroke="black" cx="48.5" cy="-517.3" rx="3.5" ry="3.5"/>
<text text-anchor="middle" x="22.5" y="-524.6" font-family="Times-Roman" font-size="14.00">collect</text>
</g>
<!-- p44&#45;&gt;p45 -->
<g id="edge68" class="edge">
<title>p44&#45;&gt;p45</title>
<path fill="none" stroke="black" d="M283.14,-798.17C254.21,-796.97 48.5,-786.64 48.5,-735.8 48.5,-735.8 48.5,-735.8 48.5,-603.3 48.5,-577.68 48.5,-547.72 48.5,-531.09"/>
<polygon fill="black" stroke="black" points="52,-530.94 48.5,-520.94 45,-530.94 52,-530.94"/>
</g>
<!-- p45&#45;&gt;p49 -->
<g id="edge69" class="edge">
<title>p45&#45;&gt;p49</title>
<path fill="none" stroke="black" d="M49.39,-513.8C55.69,-496.43 95.1,-392.92 159.5,-335.8 167.41,-328.79 176.96,-322.93 186.58,-318.15"/>
<polygon fill="black" stroke="black" points="188.17,-321.27 195.77,-313.88 185.23,-314.92 188.17,-321.27"/>
</g>
<!-- p47 -->
<g id="node52" class="node">
<title>p47</title>
<ellipse fill="none" stroke="black" cx="636.5" cy="-604.3" rx="3.5" ry="3.5"/>
<text text-anchor="middle" x="610.5" y="-611.6" font-family="Times-Roman" font-size="14.00">collect</text>
</g>
<!-- p46&#45;&gt;p47 -->
<g id="edge71" class="edge">
<title>p46&#45;&gt;p47</title>
<path fill="none" stroke="black" d="M616.81,-868.19C621.26,-859.08 635.5,-827.78 635.5,-800.3 635.5,-800.3 635.5,-800.3 635.5,-690.3 635.5,-664.68 635.96,-634.72 636.26,-618.09"/>
<polygon fill="black" stroke="black" points="639.76,-618.01 636.45,-607.94 632.76,-617.88 639.76,-618.01"/>
</g>
<!-- p47&#45;&gt;p49 -->
<g id="edge72" class="edge">
<title>p47&#45;&gt;p49</title>
<path fill="none" stroke="black" d="M636.55,-600.66C636.76,-590.21 637.5,-550.77 637.5,-518.3 637.5,-518.3 637.5,-518.3 637.5,-385.8 637.5,-319.5 425.54,-304.67 309.44,-301.52"/>
<polygon fill="black" stroke="black" points="309.28,-298.01 299.2,-301.26 309.11,-305.01 309.28,-298.01"/>
</g>
<!-- p48 -->
<g id="node53" class="node">
<title>p48</title>
<ellipse fill="black" stroke="black" cx="508.5" cy="-386.8" rx="3.6" ry="3.6"/>
</g>
<!-- p48&#45;&gt;p49 -->
<g id="edge77" class="edge">
<title>p48&#45;&gt;p49</title>
<path fill="none" stroke="black" d="M507.18,-383.01C505.3,-379.29 501.5,-372.72 496.5,-368.8 464.94,-344.04 451,-347.07 412.5,-335.8 375.99,-325.11 334.29,-316.69 300.54,-310.79"/>
<polygon fill="black" stroke="black" points="300.78,-307.28 290.34,-309.04 299.6,-314.18 300.78,-307.28"/>
<text text-anchor="middle" x="482" y="-339.6" font-family="Times-Roman" font-size="14.00">args</text>
</g>
<!-- p55 -->
<g id="node57" class="node">
<title>p55</title>
<ellipse fill="none" stroke="black" cx="170.5" cy="-193.3" rx="3.5" ry="3.5"/>
<text text-anchor="middle" x="144" y="-200.6" font-family="Times-Roman" font-size="14.00">flatten</text>
</g>
<!-- p54&#45;&gt;p55 -->
<g id="edge84" class="edge">
<title>p54&#45;&gt;p55</title>
<path fill="none" stroke="black" d="M170.5,-237.56C170.5,-231.73 170.5,-217.77 170.5,-207.27"/>
<polygon fill="black" stroke="black" points="174,-206.97 170.5,-196.97 167,-206.97 174,-206.97"/>
</g>
<!-- p61 -->
<g id="node60" class="node">
<title>p61</title>
<ellipse fill="black" stroke="black" cx="185.5" cy="-1.8" rx="1.8" ry="1.8"/>
</g>
<!-- p58&#45;&gt;p61 -->
<g id="edge88" class="edge">
<title>p58&#45;&gt;p61</title>
<path fill="none" stroke="black" d="M204.32,-54.59C199.6,-41.61 193.26,-24.14 189.27,-13.18"/>
<polygon fill="black" stroke="black" points="192.49,-11.8 185.79,-3.59 185.91,-14.19 192.49,-11.8"/>
</g>
<!-- p60 -->
<g id="node61" class="node">
<title>p60</title>
<ellipse fill="black" stroke="black" cx="210.5" cy="-1.8" rx="1.8" ry="1.8"/>
</g>
<!-- p58&#45;&gt;p60 -->
<g id="edge89" class="edge">
<title>p58&#45;&gt;p60</title>
<path fill="none" stroke="black" d="M210.5,-54.59C210.5,-42.06 210.5,-25.34 210.5,-14.34"/>
<polygon fill="black" stroke="black" points="214,-14.19 210.5,-4.19 207,-14.19 214,-14.19"/>
</g>
<!-- p59 -->
<g id="node62" class="node">
<title>p59</title>
<ellipse fill="black" stroke="black" cx="243.5" cy="-1.8" rx="1.8" ry="1.8"/>
</g>
<!-- p58&#45;&gt;p59 -->
<g id="edge90" class="edge">
<title>p58&#45;&gt;p59</title>
<path fill="none" stroke="black" d="M218.66,-54.59C224.95,-41.47 233.45,-23.76 238.7,-12.82"/>
<polygon fill="black" stroke="black" points="241.95,-14.12 243.12,-3.59 235.64,-11.1 241.95,-14.12"/>
<text text-anchor="middle" x="252.5" y="-25.4" font-family="Times-Roman" font-size="14.00">meta</text>
</g>
<!-- p56 -->
<g id="node58" class="node">
<title>p56</title>
<ellipse fill="none" stroke="black" cx="176.5" cy="-145.2" rx="3.5" ry="3.5"/>
<text text-anchor="middle" x="150.5" y="-152.5" font-family="Times-Roman" font-size="14.00">collect</text>
</g>
<!-- p55&#45;&gt;p56 -->
<g id="edge85" class="edge">
<title>p55&#45;&gt;p56</title>
<path fill="none" stroke="black" d="M170.86,-189.55C171.63,-183.65 173.48,-169.41 174.85,-158.86"/>
<polygon fill="black" stroke="black" points="178.33,-159.24 176.15,-148.87 171.39,-158.34 178.33,-159.24"/>
</g>
<!-- p56&#45;&gt;p58 -->
<g id="edge86" class="edge">
<title>p56&#45;&gt;p58</title>
<path fill="none" stroke="black" d="M177.63,-141.85C180.81,-135.25 190.1,-115.95 198,-99.55"/>
<polygon fill="black" stroke="black" points="201.25,-100.88 202.43,-90.35 194.94,-97.84 201.25,-100.88"/>
</g>
<!-- p57 -->
<g id="node59" class="node">
<title>p57</title>
<ellipse fill="black" stroke="black" cx="243.5" cy="-145.2" rx="3.6" ry="3.6"/>
</g>
<!-- p57&#45;&gt;p58 -->
<g id="edge87" class="edge">
<title>p57&#45;&gt;p58</title>
<path fill="none" stroke="black" d="M242.25,-141.52C239.02,-134.61 230.14,-115.63 222.6,-99.48"/>
<polygon fill="black" stroke="black" points="225.76,-97.99 218.36,-90.41 219.42,-100.95 225.76,-97.99"/>
<text text-anchor="middle" x="250" y="-112.4" font-family="Times-Roman" font-size="14.00">args</text>
</g>
</g>
</svg>
